<svg width="19" height="19" viewBox="0 0 19 19" fill="none" xmlns="http://www.w3.org/2000/svg">
<path d="M12.8003 11.7695L12.517 12.1193L12.8353 12.4377L18.2048 17.8071L17.8071 18.2048L12.4377 12.8353L12.1193 12.517L11.7695 12.8003C10.579 13.7645 9.06764 14.3438 7.42192 14.3438C3.60563 14.3438 0.5 11.2382 0.5 7.42192C0.5 3.60563 3.6056 0.5 7.42188 0.5C11.2382 0.5 14.3438 3.60563 14.3438 7.42192C14.3438 9.06764 13.7645 10.579 12.8003 11.7695ZM1.06252 7.42192C1.06252 10.9291 3.91472 13.7813 7.42192 13.7813C10.9291 13.7813 13.7813 10.9291 13.7813 7.42192C13.7813 3.91472 10.9291 1.06252 7.42192 1.06252C3.91472 1.06252 1.06252 3.91472 1.06252 7.42192Z" fill="white" stroke="#B9B9B9"/>
</svg>
