<svg width="24" height="24" viewBox="0 0 24 24" fill="none" xmlns="http://www.w3.org/2000/svg">
<g clip-path="url(#clip0_267_8799)">
<path d="M0.566625 8.34794C0.199031 9.49956 -4.68667e-05 10.7264 8.276e-09 12C-4.68667e-05 13.2736 0.199078 14.5005 0.566672 15.6521L12 16.174L23.4333 15.6522C23.8009 14.5006 24 13.2736 24 12.0001C24 10.7265 23.8009 9.49956 23.4333 8.34789L12 7.82617L0.566625 8.34794Z" fill="#F0F0F0"/>
<path d="M23.4332 8.34789L11.9999 7.82617L0.5665 8.34789C0.457563 8.68933 0.363766 9.03747 0.285156 9.39138H23.7144C23.6359 9.03742 23.5421 8.68923 23.4332 8.34789Z" fill="#D80027"/>
<path d="M0.285156 14.6094C0.363672 14.9633 0.457469 15.3114 0.566406 15.6528L0.567531 15.6529L11.9997 16.1746L23.433 15.6529C23.542 15.3114 23.6357 14.9633 23.7143 14.6094H0.285156Z" fill="#D80027"/>
<path d="M12.0002 24.0002C17.354 24.0002 21.8883 20.4938 23.4335 15.6523H0.566895C2.11213 20.4937 6.64644 24.0002 12.0002 24.0002Z" fill="#6DA544"/>
<path d="M11.9997 4.69973e-10C6.64595 4.68755e-05 2.11173 3.50644 0.566406 8.34783L23.433 8.34787C21.8879 3.50639 17.3536 -4.68745e-05 11.9997 4.69973e-10Z" fill="#338AF3"/>
<path d="M5.48376 4.95716C5.48376 3.83323 6.27365 2.89433 7.32848 2.66398C7.16638 2.62855 6.99815 2.60938 6.82537 2.60938C5.52871 2.60938 4.47754 3.6605 4.47754 4.9572C4.47754 6.25391 5.52862 7.30503 6.82537 7.30503C6.99815 7.30503 7.16634 7.28581 7.32848 7.25042C6.2737 7.01998 5.48376 6.08108 5.48376 4.95716Z" fill="#F0F0F0"/>
<path d="M8.71628 6.02539L8.87519 6.51453H9.3895L8.97344 6.81687L9.13234 7.30602L8.71628 7.00372L8.30012 7.30602L8.45908 6.81687L8.04297 6.51453H8.55728L8.71628 6.02539Z" fill="#F0F0F0"/>
<path d="M10.3578 6.02539L10.5167 6.51453H11.0311L10.6149 6.81687L10.7739 7.30602L10.3578 7.00372L9.94168 7.30602L10.1006 6.81687L9.68457 6.51453H10.1988L10.3578 6.02539Z" fill="#F0F0F0"/>
<path d="M11.9995 6.02539L12.1584 6.51453H12.6727L12.2566 6.81687L12.4155 7.30602L11.9995 7.00372L11.5833 7.30602L11.7423 6.81687L11.3262 6.51453H11.8405L11.9995 6.02539Z" fill="#F0F0F0"/>
<path d="M13.6411 6.02539L13.8 6.51453H14.3143L13.8982 6.81687L14.0572 7.30602L13.6411 7.00372L13.2249 7.30602L13.3839 6.81687L12.9678 6.51453H13.4821L13.6411 6.02539Z" fill="#F0F0F0"/>
<path d="M15.2826 6.02539L15.4415 6.51453H15.9559L15.5398 6.81687L15.6987 7.30602L15.2826 7.00372L14.8665 7.30602L15.0254 6.81687L14.6094 6.51453H15.1236L15.2826 6.02539Z" fill="#F0F0F0"/>
<path d="M10.3578 4.31641L10.5167 4.8055H11.0311L10.6149 5.10789L10.7739 5.59698L10.3578 5.29469L9.94168 5.59698L10.1006 5.10789L9.68457 4.8055H10.1988L10.3578 4.31641Z" fill="#F0F0F0"/>
<path d="M11.9995 4.31641L12.1584 4.8055H12.6727L12.2566 5.10789L12.4155 5.59698L11.9995 5.29469L11.5833 5.59698L11.7423 5.10789L11.3262 4.8055H11.8405L11.9995 4.31641Z" fill="#F0F0F0"/>
<path d="M13.6411 4.31641L13.8 4.8055H14.3143L13.8982 5.10789L14.0572 5.59698L13.6411 5.29469L13.2249 5.59698L13.3839 5.10789L12.9678 4.8055H13.4821L13.6411 4.31641Z" fill="#F0F0F0"/>
<path d="M15.2826 4.31641L15.4415 4.8055H15.9559L15.5398 5.10789L15.6987 5.59698L15.2826 5.29469L14.8665 5.59698L15.0254 5.10789L14.6094 4.8055H15.1236L15.2826 4.31641Z" fill="#F0F0F0"/>
<path d="M11.9995 2.60938L12.1584 3.09856H12.6727L12.2566 3.40086L12.4155 3.89005L11.9995 3.58775L11.5833 3.89005L11.7423 3.40086L11.3262 3.09856H11.8405L11.9995 2.60938Z" fill="#F0F0F0"/>
<path d="M13.6411 2.60938L13.8 3.09856H14.3143L13.8982 3.40086L14.0572 3.89005L13.6411 3.58775L13.2249 3.89005L13.3839 3.40086L12.9678 3.09856H13.4821L13.6411 2.60938Z" fill="#F0F0F0"/>
<path d="M15.2826 2.60938L15.4415 3.09856H15.9559L15.5398 3.40086L15.6987 3.89005L15.2826 3.58775L14.8665 3.89005L15.0254 3.40086L14.6094 3.09856H15.1236L15.2826 2.60938Z" fill="#F0F0F0"/>
</g>
<defs>
<clipPath id="clip0_267_8799">
<rect width="24" height="24" fill="white"/>
</clipPath>
</defs>
</svg>
